<mxfile host="Electron" modified="2024-06-28T09:41:53.676Z" agent="Mozilla/5.0 (Windows NT 10.0; Win64; x64) AppleWebKit/537.36 (KHTML, like Gecko) draw.io/24.6.1 Chrome/124.0.6367.207 Electron/30.0.6 Safari/537.36" etag="BKcE9-HqVRAD63FGl9Ob" version="24.6.1" type="device">
  <diagram name="Pagina-1" id="aBAGqVcmG0hwtlH4ap0W">
    <mxGraphModel dx="1050" dy="669" grid="1" gridSize="10" guides="1" tooltips="1" connect="1" arrows="1" fold="1" page="1" pageScale="1" pageWidth="827" pageHeight="1169" math="0" shadow="0">
      <root>
        <mxCell id="0" />
        <mxCell id="1" parent="0" />
        <mxCell id="mzdDWAomOcE7NdBtv5VN-2" value="" style="verticalLabelPosition=bottom;html=1;verticalAlign=top;align=center;strokeColor=none;fillColor=#00BEF2;shape=mxgraph.azure.mysql_database;" vertex="1" parent="1">
          <mxGeometry x="610" y="177" width="37.5" height="50" as="geometry" />
        </mxCell>
        <mxCell id="mzdDWAomOcE7NdBtv5VN-6" style="edgeStyle=orthogonalEdgeStyle;rounded=0;orthogonalLoop=1;jettySize=auto;html=1;endArrow=none;endFill=0;" edge="1" parent="1" source="mzdDWAomOcE7NdBtv5VN-3" target="mzdDWAomOcE7NdBtv5VN-4">
          <mxGeometry relative="1" as="geometry" />
        </mxCell>
        <mxCell id="mzdDWAomOcE7NdBtv5VN-3" value="" style="outlineConnect=0;dashed=0;verticalLabelPosition=bottom;verticalAlign=top;align=center;html=1;shape=mxgraph.aws3.android;fillColor=#115193;gradientColor=none;" vertex="1" parent="1">
          <mxGeometry x="377" y="160" width="73.5" height="84" as="geometry" />
        </mxCell>
        <mxCell id="mzdDWAomOcE7NdBtv5VN-4" value="" style="image;aspect=fixed;perimeter=ellipsePerimeter;html=1;align=center;shadow=0;dashed=0;spacingTop=3;image=img/lib/active_directory/laptop_client.svg;" vertex="1" parent="1">
          <mxGeometry x="120" y="177" width="45" height="50" as="geometry" />
        </mxCell>
        <mxCell id="mzdDWAomOcE7NdBtv5VN-8" style="edgeStyle=orthogonalEdgeStyle;rounded=0;orthogonalLoop=1;jettySize=auto;html=1;entryX=0;entryY=0.5;entryDx=0;entryDy=0;entryPerimeter=0;endArrow=none;endFill=0;" edge="1" parent="1" source="mzdDWAomOcE7NdBtv5VN-3" target="mzdDWAomOcE7NdBtv5VN-2">
          <mxGeometry relative="1" as="geometry" />
        </mxCell>
        <mxCell id="mzdDWAomOcE7NdBtv5VN-9" value="Client" style="text;html=1;align=center;verticalAlign=middle;resizable=0;points=[];autosize=1;strokeColor=none;fillColor=none;" vertex="1" parent="1">
          <mxGeometry x="120" y="140" width="50" height="30" as="geometry" />
        </mxCell>
        <mxCell id="mzdDWAomOcE7NdBtv5VN-10" value="Microservice .NET" style="text;html=1;align=center;verticalAlign=middle;resizable=0;points=[];autosize=1;strokeColor=none;fillColor=none;" vertex="1" parent="1">
          <mxGeometry x="353.75" y="130" width="120" height="30" as="geometry" />
        </mxCell>
        <mxCell id="mzdDWAomOcE7NdBtv5VN-11" value="DB" style="text;html=1;align=center;verticalAlign=middle;resizable=0;points=[];autosize=1;strokeColor=none;fillColor=none;" vertex="1" parent="1">
          <mxGeometry x="608.75" y="140" width="40" height="30" as="geometry" />
        </mxCell>
      </root>
    </mxGraphModel>
  </diagram>
</mxfile>
